# xmcd
#
# Track frame offsets: 
#        150
#        13518
#        33337
#        48573
#        66376
#        81188
#        100366
#        114108
#        129964
#        142062
#        157234
#        172107
#        188770
#        201242
#        212385
#        225996
#        239002
#        253168
#        271293
#        287705
#
# Disc length: 4045 seconds
#
# Revision: 4
# Processed by: cddbd v1.5.2PL0 Copyright (c) Steve Scherf et al.
# Submitted via: ExactAudioCopy v0.95b4
#
DISCID=250fcb14
DTITLE=Various Artist - SWG - Tropicana (Summer Mix) - CD 1
DYEAR=2001
DGENRE=Pop
TTITLE0=Gipsykids - Club Tropicana
TTITLE1=No Angels - River of joy
TTITLE2=Westlife - Uptown girl
TTITLE3=Loona - Baila mi ritmo
TTITLE4=Fragma - You are alive
TTITLE5=Scooter - Posse (I need you on the floor)
TTITLE6=Safri Duo - Played-a-live
TTITLE7=Dario G. - Dream to me
TTITLE8=IT-Girls - My heart it feels like... Dub Dub
TTITLE9=ATB - Let u go
TTITLE10=Fun TC - Crazy
TTITLE11=Millane Fernandez - Boom boom
TTITLE12=Prima Donna feat. Linda Scott - Why haven't I told you
TTITLE13=Sonique - It feels so good
TTITLE14=Baha Men - Who let the dogs out
TTITLE15=Gigi D'Agostino - The riddle
TTITLE16=Billy More - Up and down (Don't fall in love with me)
TTITLE17=Sylver - Turn the tide
TTITLE18=Dana - Dr. Loona
TTITLE19=Sodium - For a night
EXTD=YEAR: 2001 ID3G: 12
EXTT0=
EXTT1=
EXTT2=
EXTT3=
EXTT4=
EXTT5=
EXTT6=
EXTT7=
EXTT8=
EXTT9=
EXTT10=
EXTT11=
EXTT12=
EXTT13=
EXTT14=
EXTT15=
EXTT16=
EXTT17=
EXTT18=
EXTT19=
PLAYORDER=
